<?xml version="1.0" encoding="iso-8859-1"?>
<!-- Generator: Adobe Illustrator 19.0.0, SVG Export Plug-In . SVG Version: 6.00 Build 0)  -->
<svg version="1.1" id="Layer_1" xmlns="http://www.w3.org/2000/svg" xmlns:xlink="http://www.w3.org/1999/xlink" x="0px" y="0px"
	 viewBox="0 0 502 502" style="enable-background:new 0 0 502 502;" xml:space="preserve">
<g>
	<path style="fill:#E6E6E6;" d="M361.654,229.683H140.346c-12.776,0-23.133-10.357-23.133-23.133s10.357-23.133,23.133-23.133
		h221.308c12.776,0,23.133,10.357,23.133,23.133S374.43,229.683,361.654,229.683z"/>
	<path style="fill:#E6E6E6;" d="M361.654,318.583H140.346c-12.776,0-23.133-10.357-23.133-23.133s10.357-23.133,23.133-23.133
		h221.308c12.776,0,23.133,10.357,23.133,23.133S374.43,318.583,361.654,318.583z"/>
	<g>
		<g>
			<path style="fill:#E6E6E6;" d="M328.458,133.994c-5.934,0-11.867-2.269-16.386-6.804L251,65.906l-61.072,61.285
				c-9.018,9.049-23.666,9.076-32.715,0.057c-9.05-9.018-9.075-23.666-0.057-32.715l77.458-77.728C238.954,12.448,244.851,10,251,10
				s12.046,2.448,16.386,6.804l77.458,77.728c9.018,9.05,8.993,23.697-0.057,32.715
				C340.273,131.746,334.365,133.994,328.458,133.994z"/>
			<path d="M328.459,143.994C328.458,143.994,328.458,143.994,328.459,143.994c-8.872,0-17.208-3.461-23.471-9.746L251,80.072
				l-53.988,54.176c-6.247,6.269-14.562,9.73-23.412,9.746c-0.02,0-0.04,0-0.06,0c-8.828,0-17.131-3.431-23.386-9.664
				c-12.941-12.896-12.977-33.917-0.081-46.857L227.53,9.746C233.702,3.552,242.257,0,251,0c8.744,0,17.299,3.552,23.47,9.746
				l77.457,77.727c12.896,12.941,12.86,33.961-0.081,46.857C345.592,140.562,337.286,143.994,328.459,143.994L328.459,143.994z
				 M251,55.906c2.658,0,5.207,1.058,7.083,2.941l61.072,61.284c2.483,2.491,5.786,3.863,9.302,3.863h0.001
				c3.499,0,6.792-1.36,9.271-3.831c5.129-5.112,5.144-13.443,0.032-18.573l-77.458-77.728C257.856,21.408,254.466,20,251,20
				c-3.517,0-6.82,1.372-9.303,3.863L164.24,101.59c-5.112,5.13-5.098,13.461,0.032,18.573c2.479,2.471,5.771,3.831,9.27,3.831
				c0.008,0,0.016,0,0.024,0c3.508-0.006,6.804-1.378,9.28-3.863l61.072-61.284C245.793,56.964,248.342,55.906,251,55.906z"/>
		</g>
	</g>
	<path style="fill:#E6E6E6;" d="M251,492c-6.149,0-12.046-2.448-16.386-6.804l-77.458-77.728c-9.018-9.05-8.993-23.697,0.057-32.715
		c9.05-9.018,23.697-8.993,32.715,0.057L251,436.094l61.072-61.285c9.018-9.049,23.665-9.076,32.715-0.057
		c9.05,9.018,9.075,23.666,0.057,32.715l-77.458,77.728C263.046,489.552,257.149,492,251,492z"/>
	<g>
		<path d="M251,128c-5.523,0-10-4.477-10-10v-8c0-5.523,4.477-10,10-10c5.522,0,10,4.477,10,10v8C261,123.522,256.522,128,251,128z"
			/>
	</g>
	<g>
		<path d="M140.346,239.683h221.308c18.27,0,33.133-14.864,33.133-33.133s-14.863-33.133-33.133-33.133H261V147
			c0-5.523-4.478-10-10-10c-5.523,0-10,4.477-10,10v26.417H140.346c-18.27,0-33.133,14.864-33.133,33.133
			S122.076,239.683,140.346,239.683z M140.346,193.417h221.308c7.241,0,13.133,5.892,13.133,13.133s-5.892,13.133-13.133,13.133
			H140.346c-7.242,0-13.133-5.892-13.133-13.133S133.104,193.417,140.346,193.417z"/>
		<path d="M361.654,262.317H140.346c-18.27,0-33.133,14.864-33.133,33.133s14.863,33.133,33.133,33.133H241v83.309l-43.988-44.141
			c-12.896-12.941-33.916-12.978-46.858-0.082c-12.941,12.896-12.977,33.917-0.081,46.857l77.458,77.728
			C233.702,498.448,242.257,502,251,502c8.744,0,17.299-3.552,23.469-9.746l77.458-77.728c12.896-12.941,12.86-33.961-0.081-46.857
			c-6.255-6.233-14.558-9.664-23.386-9.664c-0.02,0-0.04,0-0.06,0c-8.851,0.016-17.165,3.477-23.411,9.746L261,411.893v-83.31
			h100.654c18.27,0,33.133-14.864,33.133-33.133S379.924,262.317,361.654,262.317z M319.155,381.869
			c2.477-2.485,5.772-3.856,9.28-3.863c0.008,0,0.016,0,0.023,0c3.499,0,6.79,1.36,9.27,3.831
			c5.129,5.112,5.144,13.443,0.032,18.573l-77.459,77.728C257.856,480.592,254.466,482,251,482c-3.517,0-6.82-1.372-9.303-3.863
			L164.24,400.41c-5.112-5.13-5.098-13.461,0.032-18.573c2.559-2.55,5.915-3.824,9.271-3.824c3.371,0,6.742,1.286,9.303,3.856
			l61.072,61.284c1.876,1.883,4.425,2.941,7.083,2.941c2.658,0,5.207-1.058,7.083-2.941L319.155,381.869z M361.654,308.583H140.346
			c-7.242,0-13.133-5.892-13.133-13.133s5.892-13.133,13.133-13.133h221.308c7.241,0,13.133,5.892,13.133,13.133
			S368.896,308.583,361.654,308.583z"/>
	</g>
</g>
<g>
</g>
<g>
</g>
<g>
</g>
<g>
</g>
<g>
</g>
<g>
</g>
<g>
</g>
<g>
</g>
<g>
</g>
<g>
</g>
<g>
</g>
<g>
</g>
<g>
</g>
<g>
</g>
<g>
</g>
</svg>
